<?xml version="1.0" encoding="UTF-8"?>
<svg width="1200pt" height="1200pt" version="1.1" viewBox="0 0 1200 1200" xmlns="http://www.w3.org/2000/svg">
 <path d="m842.59 389.16c4.543-4.3086 6.8086-9.5977 6.8008-15.867 0.007812-6.2734-2.2578-11.688-6.8008-16.25-4.3086-4.2891-9.6016-6.4336-15.871-6.4219-6.2695-0.011719-11.688 2.1289-16.246 6.4219l-210.47 210.84-210.84-210.84c-4.3086-4.293-9.5977-6.4336-15.867-6.4219-6.2734-0.011719-11.688 2.1328-16.25 6.4219-4.2891 4.5625-6.4336 9.9766-6.4219 16.25-0.011719 6.2695 2.1289 11.559 6.4219 15.867l210.84 210.84-210.84 210.47c-4.293 4.5586-6.4336 9.9766-6.4219 16.246-0.011719 6.2695 2.1328 11.562 6.4219 15.871 4.5625 4.543 9.9766 6.8086 16.25 6.8008 6.2695 0.007812 11.559-2.2578 15.867-6.8008l210.84-210.46 210.47 210.46c4.5586 4.543 9.9766 6.8086 16.246 6.8008 6.2695 0.007812 11.562-2.2578 15.871-6.8008 4.543-4.3086 6.8086-9.6016 6.8008-15.871 0.007812-6.2695-2.2578-11.688-6.8008-16.246l-210.46-210.47z" fill="#fcf3e6"/>
</svg>
