<?xml version="1.0" encoding="UTF-8"?>
<svg width="1200pt" height="1200pt" version="1.1" viewBox="0 0 1200 1200" xmlns="http://www.w3.org/2000/svg">
 <g fill="#fcf3e6">
  <path d="m175.35 575c-6.6914-0.09375-13.145 2.4961-17.91 7.1953-4.7656 4.6992-7.4492 11.113-7.4492 17.805s2.6836 13.105 7.4492 17.805c4.7656 4.6992 11.219 7.2891 17.91 7.1953h849.3-0.003906c6.6914 0.09375 13.145-2.4961 17.91-7.1953 4.7656-4.6992 7.4492-11.113 7.4492-17.805s-2.6836-13.105-7.4492-17.805c-4.7656-4.6992-11.219-7.2891-17.91-7.1953z"/>
  <path d="m175.35 325c-6.6914-0.09375-13.145 2.4961-17.91 7.1953-4.7656 4.6992-7.4492 11.113-7.4492 17.805s2.6836 13.105 7.4492 17.805c4.7656 4.6992 11.219 7.2891 17.91 7.1953h849.3-0.003906c6.6914 0.09375 13.145-2.4961 17.91-7.1953 4.7656-4.6992 7.4492-11.113 7.4492-17.805s-2.6836-13.105-7.4492-17.805c-4.7656-4.6992-11.219-7.2891-17.91-7.1953z"/>
  <path d="m175.36 825c-6.6914-0.09375-13.141 2.4961-17.906 7.1953-4.7656 4.6992-7.4492 11.113-7.4492 17.805s2.6836 13.105 7.4492 17.805c4.7656 4.6992 11.215 7.2891 17.906 7.1953h849.3c6.6914 0.09375 13.141-2.4961 17.906-7.1953 4.7656-4.6992 7.4492-11.113 7.4492-17.805s-2.6836-13.105-7.4492-17.805c-4.7656-4.6992-11.215-7.2891-17.906-7.1953z"/>
 </g>
</svg>
