<?xml version="1.0" encoding="UTF-8"?>
<svg width="1200pt" height="1200pt" version="1.1" viewBox="0 0 1200 1200" xmlns="http://www.w3.org/2000/svg">
 <path d="m301.87 929.94-0.023438-0.66016c0-164.65 133.48-298.13 298.13-298.13h0.046876c164.65 0 298.13 133.48 298.13 298.13 0 11.617-11.809 13.152-11.809 13.152h-572.69c-6.5156 0-11.809-5.2891-11.809-11.809 0-0.23438 0-0.44531 0.023438-0.68359zm572.45-11.121h-548.67c5.5039-146.75 126.23-264.05 274.32-264.05h0.046876c148.1 0 268.82 117.3 274.3 264.05zm-274.32-661.25c-92.289 0-167.2 74.91-167.2 167.2 0 92.27 74.91 167.2 167.2 167.2 92.27 0 167.2-74.934 167.2-167.2 0-92.289-74.934-167.2-167.2-167.2zm0 23.613c79.234 0 143.59 64.332 143.59 143.59 0 79.234-64.352 143.59-143.59 143.59-79.254 0-143.59-64.352-143.59-143.59 0-79.254 64.332-143.59 143.59-143.59z" fill="#fcf3e6" fill-rule="evenodd"/>
</svg>
