<?xml version="1.0" encoding="UTF-8"?>
<svg width="1200pt" height="1200pt" version="1.1" viewBox="0 0 1200 1200" xmlns="http://www.w3.org/2000/svg">
 <g fill="#fcf3e6">
  <path d="m217.5 690h65.25c6.75 24.75 16.5 48.75 29.25 71.25l-45.75 45.75c-6.75 6.75-11.25 16.5-11.25 26.25s3.75 19.5 11.25 26.25l58.5 58.5c6 6 15 6 21 0s6-15 0-21l-58.5-58.5c-2.25-2.25-2.25-4.5-2.25-5.25s0-3.75 2.25-5.25l54-54c5.25-5.25 6-12.75 2.25-18.75-15.75-26.25-27.75-54-34.5-84-1.5-6.75-7.5-11.25-14.25-11.25h-77.25c-4.5 0-7.5-3-7.5-7.5v-105c0-4.5 3-7.5 7.5-7.5h76.5c6.75 0 12.75-4.5 14.25-11.25 7.5-30 18.75-57.75 34.5-84 3.75-6 3-13.5-2.25-18.75l-54-54c-1.5-2.25-1.5-4.5-1.5-5.25 0-1.5 0-3.75 2.25-5.25l74.25-74.25c3-3 7.5-3 10.5 0l54 54c5.25 5.25 12.75 6 18.75 2.25 26.25-15.75 54-27.75 84-34.5 6.75-1.5 11.25-7.5 11.25-14.25v-77.25c0-4.5 3-7.5 7.5-7.5h105c4.5 0 7.5 3 7.5 7.5v76.5c0 6.75 4.5 12.75 11.25 14.25 30 7.5 57.75 18.75 84 34.5 6 3.75 13.5 3 18.75-2.25l54-54c3-3 7.5-3 10.5 0l74.25 74.25c2.25 2.25 2.25 4.5 2.25 5.25 0 1.5 0 3.75-2.25 5.25l-54 54c-5.25 5.25-6 12.75-2.25 18.75 15.75 26.25 27.75 54 34.5 84 1.5 6.75 7.5 11.25 14.25 11.25h77.25c4.5 0 7.5 3 7.5 7.5v105c0 4.5-3 7.5-7.5 7.5h-76.5c-6.75 0-12.75 4.5-14.25 11.25-7.5 30-18.75 57.75-34.5 84-3.75 6-3 13.5 2.25 18.75l54 54c2.25 2.25 2.25 4.5 2.25 5.25 0 1.5 0 3.75-2.25 5.25l-58.5 58.5c-6 6-6 15 0 21 3 3 6.75 4.5 10.5 4.5s7.5-1.5 10.5-4.5l58.5-58.5c6.75-6.75 11.25-16.5 11.25-26.25s-3.75-19.5-11.25-26.25l-45.75-45.75c12.75-22.5 22.5-45.75 29.25-71.25h65.25c21 0 37.5-16.5 37.5-37.5v-104.25c0-21-16.5-37.5-37.5-37.5h-65.25c-6.75-24.75-16.5-48.75-29.25-71.25l45.75-45.75c6.75-6.75 11.25-16.5 11.25-26.25s-3.75-19.5-11.25-26.25l-74.25-74.25c-14.25-14.25-38.25-15-53.25 0l-45.75 45.75c-22.5-12.75-45.75-22.5-71.25-29.25v-65.25c0-21-16.5-37.5-37.5-37.5h-105c-21 0-37.5 16.5-37.5 37.5v65.25c-24.75 6.75-48.75 16.5-71.25 29.25l-45.75-45.75c-15-14.25-38.25-14.25-53.25 0l-74.25 74.25c-6.75 6.75-11.25 16.5-11.25 26.25s3.75 19.5 11.25 26.25l45.75 45.75c-12.75 22.5-22.5 45.75-29.25 71.25h-64.5c-21 0-37.5 16.5-37.5 37.5v105c0 21 16.5 37.5 37.5 37.5z"/>
  <path d="m742.5 570c0-78.75-63.75-142.5-142.5-142.5s-142.5 63.75-142.5 142.5 63.75 142.5 142.5 142.5 142.5-63.75 142.5-142.5zm-255 0c0-62.25 50.25-112.5 112.5-112.5s112.5 50.25 112.5 112.5-50.25 112.5-112.5 112.5-112.5-50.25-112.5-112.5z"/>
  <path d="m375 907.5v60c0 29.25 23.25 52.5 52.5 52.5h345c29.25 0 52.5-23.25 52.5-52.5v-60c0-90.75-74.25-165-165-165h-120c-90.75 0-165 74.25-165 165zm165-135h120c74.25 0 135 60.75 135 135v60c0 12.75-9.75 22.5-22.5 22.5h-345c-12.75 0-22.5-9.75-22.5-22.5v-60c0-74.25 60.75-135 135-135z"/>
  <path d="m615 840h39.75c36 0 65.25 29.25 65.25 65.25 0 8.25 6.75 15 15 15s15-6.75 15-15c0-52.5-42.75-95.25-95.25-95.25h-39.75c-8.25 0-15 6.75-15 15s6.75 15 15 15z"/>
 </g>
</svg>
