<?xml version="1.0" encoding="UTF-8"?>
<svg width="1200pt" height="1200pt" version="1.1" viewBox="0 0 1200 1200" xmlns="http://www.w3.org/2000/svg">
 <g fill="#fcf3e6">
  <path d="m554.4 518.4h-67.199l-130.8 226.8c14.398 16.801 26.398 36 33.602 57.602z"/>
  <path d="m468 460.8h290.4c12 0 21.602-9.6016 21.602-21.602 0-69.602-42-129.6-103.2-154.8-6-2.3984-6-9.6016-1.1992-13.199 32.398-21.602 50.398-61.199 43.199-104.4-7.1992-40.801-39.602-74.398-79.199-82.801-67.199-14.398-126 37.199-126 102 0 34.801 16.801 64.801 43.199 84 4.8008 3.6016 3.6016 10.801-1.1992 13.199-63.602 24-108 85.199-108 156-2.4023 12 8.3984 21.602 20.398 21.602z"/>
  <path d="m672 518.4 164.4 284.4c7.1992-21.602 19.199-40.801 33.602-57.602l-132-226.8z"/>
  <path d="m1050 951.6c-6-2.3984-6-9.6016-1.1992-13.199 32.398-21.602 50.398-61.199 43.199-104.4-7.1992-40.801-39.602-74.398-79.199-82.801-67.199-14.398-126 37.199-126 102 0 34.801 16.801 64.801 43.199 84 4.8008 3.6016 3.6016 10.801-1.1992 13.199-63.602 24-108 85.199-108 156 0 12 9.6016 21.602 21.602 21.602h290.4c12 0 21.602-9.6016 21.602-21.602-1.2031-69.602-43.203-129.6-104.4-154.8z"/>
  <path d="m448.8 1046.4h320.4c6-20.398 14.398-39.602 25.199-57.602l-369.6 0.003906c10.801 18 19.199 37.199 24 57.598z"/>
  <path d="m296.4 951.6c-6-2.3984-6-9.6016-1.1992-13.199 32.398-21.602 50.398-61.199 43.199-104.4-7.1992-40.801-39.602-74.398-79.199-82.801-68.398-13.203-127.2 37.195-127.2 102 0 34.801 16.801 64.801 43.199 84 4.8008 3.6016 3.6016 10.801-1.1992 13.199-63.602 24-108 85.199-108 156 0 12 9.6016 21.602 21.602 21.602h290.4c12 0 21.602-9.6016 21.602-21.602 0-69.598-43.203-129.6-103.2-154.8z"/>
 </g>
</svg>
