<?xml version="1.0" encoding="UTF-8"?>
<svg width="1200pt" height="1200pt" version="1.1" viewBox="0 0 1200 1200" xmlns="http://www.w3.org/2000/svg">
 <g fill="#fcf3e6">
  <path d="m515.18 549.6h163.76c6.457-0.17969 12.566-2.9727 16.926-7.7422 4.3594-4.7656 6.6016-11.094 6.207-17.543 0-29.328-12.289-57.312-33.875-77.164-4.5586-3.9727-10.191-6.5078-16.188-7.2852-5.9961-0.78125-12.09 0.23047-17.516 2.9023-11.789 5.4141-24.613 8.1914-37.586 8.1445-12.984 0.035157-25.828-2.7227-37.656-8.0781-5.375-2.6133-11.395-3.5938-17.32-2.8125-5.9219 0.77734-11.488 3.2773-16 7.1914-22.039 20.473-34.445 49.27-34.191 79.348 0.089843 6.1523 2.5977 12.02 6.9844 16.336 4.3906 4.3125 10.301 6.7227 16.453 6.7031z"/>
  <path d="m596.93 420.04c18.402-0.92187 35.691-9.0859 48.098-22.707 12.402-13.621 18.918-31.598 18.117-50.004 0.80078-18.41-5.7148-36.387-18.117-50.012-12.406-13.621-29.695-21.789-48.098-22.715-18.406 0.92188-35.703 9.082-48.113 22.707-12.414 13.625-18.93 31.605-18.137 50.02-0.79688 18.41 5.7227 36.391 18.137 50.012 12.41 13.621 29.707 21.781 48.113 22.699z"/>
  <path d="m600 675c66.305 0 129.89-26.34 176.78-73.223 46.883-46.883 73.223-110.47 73.223-176.78s-26.34-129.89-73.223-176.78c-46.883-46.883-110.47-73.223-176.78-73.223s-129.89 26.34-176.78 73.223c-46.883 46.883-73.223 110.47-73.223 176.78 0.074219 66.281 26.438 129.82 73.309 176.69 46.867 46.871 110.41 73.234 176.69 73.309zm0-450c53.043 0 103.91 21.07 141.42 58.578s58.578 88.379 58.578 141.42-21.07 103.91-58.578 141.42-88.379 58.578-141.42 58.578-103.91-21.07-141.42-58.578-58.578-88.379-58.578-141.42c0.0625-53.023 21.152-103.86 58.645-141.36 37.496-37.492 88.332-58.582 141.36-58.645z"/>
  <path d="m825 750h-375c-8.9297 0-17.184 4.7656-21.652 12.5-4.4648 7.7344-4.4648 17.266 0 25 4.4688 7.7344 12.723 12.5 21.652 12.5h375c8.9297 0 17.184-4.7656 21.652-12.5 4.4648-7.7344 4.4648-17.266 0-25-4.4688-7.7344-12.723-12.5-21.652-12.5z"/>
  <path d="m187.5 150v900c0.023438 19.883 7.9297 38.949 21.992 53.008 14.059 14.062 33.125 21.969 53.008 21.992h675c19.883-0.023438 38.949-7.9297 53.008-21.992 14.062-14.059 21.969-33.125 21.992-53.008v-900c-0.023438-19.883-7.9297-38.949-21.992-53.008-14.059-14.062-33.125-21.969-53.008-21.992h-675c-19.883 0.023438-38.949 7.9297-53.008 21.992-14.062 14.059-21.969 33.125-21.992 53.008zm775 0v900c-0.007812 6.6289-2.6445 12.984-7.3281 17.672-4.6875 4.6836-11.043 7.3203-17.672 7.3281h-675c-6.6289-0.007812-12.984-2.6445-17.672-7.3281-4.6836-4.6875-7.3203-11.043-7.3281-17.672v-900c0.007812-6.6289 2.6445-12.984 7.3281-17.672 4.6875-4.6836 11.043-7.3203 17.672-7.3281h675c6.6289 0.007812 12.984 2.6445 17.672 7.3281 4.6836 4.6875 7.3203 11.043 7.3281 17.672z"/>
  <path d="m400 775c0 13.809-11.191 25-25 25s-25-11.191-25-25 11.191-25 25-25 25 11.191 25 25"/>
  <path d="m825 850h-375c-8.9297 0-17.184 4.7656-21.652 12.5-4.4648 7.7344-4.4648 17.266 0 25 4.4688 7.7344 12.723 12.5 21.652 12.5h375c8.9297 0 17.184-4.7656 21.652-12.5 4.4648-7.7344 4.4648-17.266 0-25-4.4688-7.7344-12.723-12.5-21.652-12.5z"/>
  <path d="m400 875c0 13.809-11.191 25-25 25s-25-11.191-25-25 11.191-25 25-25 25 11.191 25 25"/>
  <path d="m825 950h-375c-8.9297 0-17.184 4.7656-21.652 12.5-4.4648 7.7344-4.4648 17.266 0 25 4.4688 7.7344 12.723 12.5 21.652 12.5h375c8.9297 0 17.184-4.7656 21.652-12.5 4.4648-7.7344 4.4648-17.266 0-25-4.4688-7.7344-12.723-12.5-21.652-12.5z"/>
  <path d="m400 975c0 13.809-11.191 25-25 25s-25-11.191-25-25 11.191-25 25-25 25 11.191 25 25"/>
 </g>
</svg>
