<?xml version="1.0" encoding="UTF-8"?>
<svg width="1200pt" height="1200pt" version="1.1" viewBox="0 0 1200 1200" xmlns="http://www.w3.org/2000/svg">
 <g fill="#fcf3e6">
  <path d="m468.74 675c0 72.375 58.875 131.26 131.26 131.26s131.26-58.875 131.26-131.26-58.875-131.26-131.26-131.26-131.26 58.875-131.26 131.26zm131.26-93.75c51.75 0 93.75 42 93.75 93.75s-42 93.75-93.75 93.75-93.75-42-93.75-93.75 42-93.75 93.75-93.75z"/>
  <path d="m731.26 843.74h-56.25c-4.125 0-8.0625 1.3125-11.25 3.75l-63.75 47.812-63.75-47.812c-3.1875-2.4375-7.125-3.75-11.25-3.75h-56.25c-51.75 0-93.75 42-93.75 93.75v131.26c0 30.938 25.312 56.25 56.25 56.25h337.5c30.938 0 56.25-25.312 56.25-56.25v-131.26c0-51.75-42-93.75-93.75-93.75zm56.25 225c0 10.312-8.4375 18.75-18.75 18.75h-337.5c-10.312 0-18.75-8.4375-18.75-18.75v-131.26c0-30.938 25.312-56.25 56.25-56.25h50.062l69.938 52.5c6.75 5.0625 15.75 5.0625 22.5 0l69.938-52.5h50.062c30.938 0 56.25 25.312 56.25 56.25z"/>
  <path d="m1056 137.81c-44.438-42.75-103.12-65.438-164.81-62.625-112.12 4.3125-206.81 95.25-215.44 206.81-7.875 100.12 49.688 191.44 142.87 227.63 20.438 7.875 36.375 23.812 43.875 43.875l19.875 53.062c2.8125 7.3125 9.75 12.188 17.625 12.188s14.812-4.875 17.625-12.188l19.875-53.062c7.5-19.875 23.625-36 44.625-44.062 86.812-34.125 142.87-116.25 142.87-209.44 0-61.688-24.562-119.25-69-162.19zm-50.062 120.19-131.26 112.5c-3.5625 3-7.875 4.5-12.188 4.5-4.875 0-9.5625-1.875-13.312-5.4375l-56.25-56.25c-7.3125-7.3125-7.3125-19.125 0-26.438 7.3125-7.5 19.312-7.5 26.625 0l43.875 43.875 118.12-101.25c7.875-6.75 19.688-5.8125 26.438 2.0625s5.8125 19.688-2.0625 26.438z"/>
  <path d="m525 300c0-61.688-24.562-119.25-69-162.19-44.438-42.75-103.12-65.062-164.81-62.625-112.12 4.3125-206.81 95.25-215.44 206.81-7.875 100.12 49.688 191.44 142.87 227.63 20.438 7.875 36.375 23.812 43.875 43.875l19.875 53.062c2.8125 7.3125 9.75 12.188 17.625 12.188s14.812-4.875 17.625-12.188l19.875-53.062c7.5-19.875 23.625-36 44.625-44.062 86.812-34.125 142.87-116.25 142.87-209.44zm-243.74 112.5c0-10.312 8.4375-18.75 18.75-18.75s18.75 8.4375 18.75 18.75-8.4375 18.75-18.75 18.75-18.75-8.4375-18.75-18.75zm37.5-56.25c0 10.312-8.4375 18.75-18.75 18.75s-18.75-8.4375-18.75-18.75v-37.5c0-10.312 8.4375-18.75 18.75-18.75 20.625 0 37.5-16.875 37.5-37.5s-16.875-37.5-37.5-37.5-37.5 16.875-37.5 37.5c0 10.312-8.4375 18.75-18.75 18.75s-18.75-8.4375-18.75-18.75c0-41.25 33.562-75 75-75s75 33.75 75 75c0 34.875-24 64.312-56.25 72.75z"/>
 </g>
</svg>
