<?xml version="1.0" encoding="UTF-8"?>
<svg width="1200pt" height="1200pt" version="1.1" viewBox="0 0 1200 1200" xmlns="http://www.w3.org/2000/svg">
 <path d="m1185 453.75c-11.25-3.75-22.5-3.75-30 3.75l-555 435-555-435c-7.5-7.5-18.75-7.5-30-3.75-7.5 3.75-15 15-15 26.25v693.75c0 15 11.25 26.25 30 26.25h1143.8c15 0 30-11.25 30-30v-690c-3.75-11.25-11.25-22.5-18.75-26.25z" fill="#fff"/>
 <path d="m600 956.25c-7.5 0-11.25-3.75-18.75-7.5l-420-330c-7.5-7.5-11.25-15-11.25-22.5v-566.25c0-18.75 11.25-30 30-30h843.75c15 0 26.25 11.25 26.25 30v566.25c0 7.5-3.75 15-11.25 22.5l-423.75 333.75c-3.75 0-7.5 3.75-15 3.75zm-393.75-375 393.75 311.25 393.75-311.25v-525h-787.5z" fill="#fff"/>
 <path d="m180 622.5c-7.5 0-11.25-3.75-18.75-7.5l-150-116.25c-7.5-3.75-11.25-11.25-11.25-18.75s3.75-15 11.25-22.5l150-116.25c7.5-7.5 18.75-7.5 30-3.75s15 15 15 26.25v236.25c0 11.25-7.5 18.75-15 26.25-3.75-3.75-7.5-3.75-11.25-3.75zm-105-142.5 75 60v-120z" fill="#fff"/>
 <path d="m1023.8 622.5c-3.75 0-7.5 0-11.25-3.75-11.25-3.75-15-15-15-26.25v-232.5c0-11.25 7.5-18.75 15-26.25 11.25-3.75 22.5-3.75 30 3.75l150 116.25c7.5 3.75 11.25 15 11.25 22.5s-3.75 15-11.25 22.5l-150 116.25c-7.5 7.5-15 7.5-18.75 7.5zm26.25-206.25v120l75-60z" fill="#fff"/>
 <path d="m753.75 236.25c-82.5-37.5-153.75 48.75-153.75 48.75s-71.25-86.25-153.75-48.75-105 131.25-60 195c37.5 48.75 210 202.5 210 202.5s172.5-153.75 210-202.5c52.5-63.75 26.25-157.5-52.5-195z" fill="#fff"/>
</svg>
