<?xml version="1.0" encoding="UTF-8"?>
<svg width="1200pt" height="1200pt" version="1.1" viewBox="0 0 1200 1200" xmlns="http://www.w3.org/2000/svg">
 <path d="m185.06 571.12 162-85.125 64.875 34.312-37.688 219.56 219.94-115.5 219.94 115.5-36.75-213.94 75.938-39.938 161.81 85.125-30.75-180.19 130.69-127.69-180.75-26.438-80.812-164.06-80.812 164.06-86.25 12.562-91.875-186.38-91.125 184.69-75.188-10.875-80.812-164.06-80.812 164.06-180.94 26.438 130.88 127.69-31.125 180.19zm612.19-299.81 56.062-113.44 56.062 113.44 125.25 18.188-90.562 88.312 21.375 124.69-111.94-58.875-61.875 32.438 158.44-154.5-245.81-35.812-0.5625-1.125 93.75-13.688zm-118.12 48.938 190.12 27.562-137.62 134.06 32.438 189.38-170.06-89.438-170.06 89.438 32.438-189.38-137.62-134.06 190.12-27.562 84.938-172.31 84.938 172.31zm-513.56-30.75 125.44-18.188 56.062-113.44 56.062 113.44 82.5 12-1.3125 2.8125-245.81 35.812 144.56 141-36-18.938-112.12 58.875 21.562-124.69-90.75-88.312zm312.56 537.94c0 67.125 54.75 121.88 121.88 121.88 161.44-6.1875 161.44-237.56 0-243.75-67.125 0-121.88 54.75-121.88 121.88zm206.25 0c-3.5625 111.56-165.19 111.56-168.75 0 3.5625-111.56 165.19-111.56 168.75 0zm106.31 208.12c-26.812-40.688-72.938-67.5-125.06-67.5h-131.25c-91.125-0.75-158.62 81.562-150 168.75h431.25c1.875-35.25-4.6875-72.375-24.938-101.25zm-367.31 63.75c9-53.062 55.312-93.75 111-93.75h131.25c55.688 0 102 40.688 111 93.75zm-262.69-245.06c3.9375 122.25 181.12 122.06 184.88 0-3.75-122.25-181.12-122.06-184.88 0zm147.38 0c-2.4375 72.562-107.44 72.562-109.88 0 1.875-72.375 108-72.375 109.88 0zm-174.38 188.81h228.94c-5.25 11.812-9.375 24.375-12 37.5h-256.88c-7.3125-68.438 41.812-131.44 112.5-131.25h93.75c37.688 0 71.25 18.75 91.5 47.25-8.8125 10.5-16.688 22.125-23.25 34.5-11.625-26.062-37.875-44.25-68.25-44.25h-93.75c-34.875 0-64.312 24-72.562 56.25zm813.19-281.25c-122.25 3.75-122.06 181.12 0 184.88 122.25-3.9375 122.06-181.12 0-184.88zm0 147.38c-72.375-1.875-72.375-108 0-109.88 72.375 1.875 72.375 108 0 109.88zm159.38 152.62v18.75h-256.88c-2.625-13.125-6.75-25.688-12-37.5h228.94c-8.25-32.25-37.688-56.25-72.562-56.25h-93.75c-30.375 0-56.625 18.188-68.25 44.25-6.5625-12.375-14.438-24-23.25-34.5 20.25-28.5 53.812-47.25 91.5-47.25h93.75c62.062 0 112.5 50.438 112.5 112.5z" fill="#fff"/>
</svg>
