<?xml version="1.0" encoding="UTF-8"?>
<svg width="1200pt" height="1200pt" version="1.1" viewBox="0 0 1200 1200" xmlns="http://www.w3.org/2000/svg">
 <path d="m738 826.8-21.602-9.6016c-4.8008-2.3984-10.801-1.1992-15.602 2.3984-22.801 20.398-43.199 30-58.801 34.801-14.398 4.8008-27.602-8.3984-24-22.801l90-334.8c1.1992-6 1.1992-13.199-2.3984-18-4.8008-7.1992-12-12-20.398-12h-3.6016l-178.8 30c-12 2.3984-20.398 13.199-19.199 26.398l2.3984 19.199c1.1992 10.801 10.801 19.199 22.801 19.199l31.203 0.007812-82.801 302.4v1.1992c-2.3984 13.199-3.6016 33.602 7.1992 54 20.398 38.398 58.801 45.602 98.398 45.602 99.602 0 160.8-78 181.2-120 4.8047-6 1.2031-14.402-5.9961-18z" fill="#fff"/>
 <path d="m655.2 424.8c51.602 0 93.602-42 93.602-93.602 0-51.602-42-93.602-93.602-93.602-51.602 0-93.602 42-93.602 93.602 0.003906 51.602 42.004 93.602 93.602 93.602z" fill="#fff"/>
 <path d="m600 30c-314.4 0-570 255.6-570 570s255.6 570 570 570 570-255.6 570-570-255.6-570-570-570zm0 1054.8c-267.6 0-484.8-217.2-484.8-484.8s217.2-484.8 484.8-484.8 484.8 217.2 484.8 484.8-217.2 484.8-484.8 484.8z" fill="#fff"/>
</svg>
