<?xml version="1.0" encoding="UTF-8"?>
<svg width="1200pt" height="1200pt" version="1.1" viewBox="0 0 1200 1200" xmlns="http://www.w3.org/2000/svg">
 <path d="m974.98 100h-41.648v-33.332c0-18.41-14.926-33.332-33.332-33.332-18.41 0-33.332 14.926-33.332 33.332v33.332h-533.34v-33.332c0-18.41-14.926-33.332-33.332-33.332-18.41 0-33.332 14.926-33.332 33.332v33.332h-41.648c-105.7 0-191.69 85.988-191.69 191.69v683.29c0 105.7 85.988 191.69 191.69 191.69h749.96c105.7 0 191.69-85.988 191.69-191.69v-683.29c0-105.7-85.988-191.69-191.69-191.69zm-749.96 66.668h41.648v66.668c0 18.41 14.926 33.332 33.332 33.332 18.41 0 33.332-14.926 33.332-33.332v-66.668h533.33v66.668c0 18.41 14.926 33.332 33.332 33.332 18.41 0 33.332-14.926 33.332-33.332l0.003906-66.668h41.648c68.938 0 125.02 56.082 125.02 125.02v74.98h-1e3v-74.98c0-68.938 56.082-125.02 125.02-125.02zm749.96 933.33h-749.96c-68.938 0-125.02-56.082-125.02-125.02v-541.65h1e3v541.65c0 68.938-56.082 125.02-125.02 125.02z" fill="#800020"/>
 <path d="m789.65 673.62-110.39-16.039-49.367-100.03c-12.207-24.727-47.57-24.738-59.781 0l-49.367 100.03-110.39 16.039c-27.289 3.9609-38.23 37.602-18.473 56.855l79.875 77.863-18.855 109.94c-4.6562 27.168 23.938 47.977 48.363 35.141l98.738-51.91 98.734 51.906c24.48 12.867 53.012-8.0195 48.363-35.141l-18.855-109.94 79.875-77.863c19.746-19.238 8.832-52.887-18.469-56.852zm-120.49 99.211c-7.8594 7.6562-11.441 18.691-9.5859 29.504l10.402 60.645-54.461-28.633c-9.7148-5.1055-21.312-5.1055-31.023 0l-54.461 28.633 10.402-60.645c1.8555-10.812-1.7305-21.848-9.5859-29.504l-44.059-42.949 60.891-8.8477c10.859-1.5781 20.238-8.3945 25.098-18.234l27.223-55.176 27.23 55.176c4.8594 9.8359 14.238 16.656 25.098 18.234l60.891 8.8477z" fill="#800020"/>
</svg>
