<?xml version="1.0" encoding="UTF-8"?>
<svg width="1200pt" height="1200pt" version="1.1" viewBox="0 0 1200 1200" xmlns="http://www.w3.org/2000/svg">
 <path d="m704.86 843.61c27.891-47.625 28.734-82.266 23.391-104.25 20.391 10.969 34.922 30.281 39.75 52.875 1.0312 6.4688 6.8438 11.062 13.359 10.5 6.5156-0.51562 11.531-5.9531 11.531-12.469 0-75 33.891-116.02 55.641-134.63h-0.046875c5.2969 47.203 21.422 92.531 47.156 132.47 27.656 42.234 30.422 96.094 7.125 140.9-2.9531 4.875-2.2031 11.156 1.7812 15.188 4.0312 4.0781 10.266 4.9219 15.188 2.0625 11.203-6.5156 21.094-15 29.25-25.031-11.297 72.938-78.188 123.89-151.5 115.5-40.172-3.3281-75.703-27.516-93.469-63.75-21.469-40.5-21.141-89.109 0.84375-129.37zm390.52-158.26c-0.84375-6.2344-6.1875-10.922-12.516-10.875-6.3281-0.046875-11.719 4.6875-12.469 11.016-6.2344 35.812-22.688 69-47.391 95.625 27.328-84.516 15.094-176.81-33.375-251.26-89.625-144.74-82.875-266.76-82.734-267.37 0.51562-4.5938-1.5469-9.1406-5.3906-11.766-3.7969-2.625-8.7656-2.9062-12.891-0.75-5.7656 2.8594-129.37 68.109-150.98 245.63-27.188-47.344-74.578-79.594-128.63-87.469-5.1094-0.60938-10.078 1.9688-12.516 6.4688-2.5312 4.8281-1.6875 10.734 2.1562 14.625 2.3906 2.4844 60 65.391-21.234 204.24l-0.046876 0.046875c-47.344 84.656-48.234 187.64-2.3438 273.1 30.047 60.375 83.156 106.03 147.37 126.66-16.922-13.125-30.75-29.766-40.5-48.75-25.828-48.047-25.266-105.94 1.3594-153.52 41.484-70.875 13.5-102.52 12.516-103.73-3.8906-3.9375-4.7812-9.9375-2.1562-14.766 2.4844-4.5 7.4531-7.0312 12.516-6.375 25.688 3.8906 48.938 17.297 65.25 37.5 8.0156-51.141 38.297-96.047 82.641-122.76 4.0781-2.0625 9-1.7812 12.797 0.84375 3.75 2.625 5.8125 7.0781 5.2969 11.672 0 0.60938-3.6094 65.109 44.109 141.74h0.046875c21.328 33.094 30.234 72.703 24.984 111.75 3.8906-7.875 6.5625-16.312 7.875-24.984 0.14062-3.375 1.6875-6.5156 4.1719-8.7656 2.5312-2.25 5.8594-3.375 9.1875-3.1406 6.3281-0.046875 11.672 4.6406 12.516 10.875 9.4688 54.656-6.8438 110.62-44.109 151.64-3.1406 3.375-6.6094 6.5156-10.125 9.6094 36.469-15 69.375-37.547 96.469-66.234 64.406-68.391 92.156-164.02 78.141-270.52zm-540.24-64.594c70.875-121.13 26.484-172.36 24.984-174.98v-0.046875c-10.359-10.828-13.219-26.812-7.3125-40.594 5.9062-13.828 19.453-22.781 34.453-22.781 2.0625-0.1875 4.1719-0.1875 6.2344 0 41.344 6.75 79.641 26.016 109.73 55.125 17.719-70.031 56.672-132.84 111.52-179.86-29.672-46.406-75.609-80.016-128.81-94.266-53.203-14.203-109.83-8.0156-158.68 17.391l-62.484 32.016-61.875-32.016h-0.046876c-53.859-27.797-116.77-32.25-174-12.328-57.234 19.922-103.78 62.484-128.72 117.7-18.234 41.062-23.578 86.625-15.328 130.78 8.2031 44.156 29.625 84.75 61.453 116.48l276.74 274.13c11.203 11.203 26.484 17.531 42.375 17.484 11.953-0.046875 23.672-3.6094 33.609-10.266-10.172-66.891 2.5312-135.24 36.141-193.97zm-373.87-215.9c-6.375 0.046875-11.766-4.6875-12.516-10.969-3.1406-27.422 1.2188-55.219 12.516-80.391 4.3125-9.8438 9.75-19.219 16.125-27.891 4.2188-4.6875 11.344-5.4844 16.5-1.8281 5.2031 3.7031 6.7969 10.641 3.75 16.219-19.172 26.062-27.703 58.5-23.906 90.609 0.42188 3.3281-0.5625 6.6562-2.625 9.2344-2.0625 2.625-5.0625 4.2656-8.3438 4.6406zm50.016 80.859-0.046875 0.046875c-2.3438 2.3906-5.5312 3.7031-8.8594 3.75-3.2812-0.046875-6.4219-1.3125-8.7656-3.6562-10.875-10.781-20.062-23.156-27.234-36.75-1.9688-5.7656 0.5625-12.141 5.9531-15 5.3906-2.9062 12.094-1.4531 15.797 3.375 6.0469 11.344 13.781 21.703 22.875 30.75 4.7812 4.875 4.7812 12.656 0 17.531z" fill="#800020"/>
</svg>
